<svg xmlns="http://www.w3.org/2000/svg" width="15.039" height="9.158" viewBox="0 0 15.039 9.158">
  <path id="Контур_3" data-name="Контур 3" d="M62.916,146.707l-3.89,3.962a.07.07,0,0,0,0,.1l2.722,2.9a.469.469,0,0,1,0,.665.471.471,0,0,1-.665,0l-2.711-2.889a.074.074,0,0,0-.1,0l-.662.672a2.911,2.911,0,0,1-2.075.875,2.969,2.969,0,0,1-2.118-.9l-.636-.647a.074.074,0,0,0-.1,0l-2.711,2.889a.471.471,0,0,1-.665,0,.469.469,0,0,1,0-.665l2.722-2.9a.077.077,0,0,0,0-.1l-3.894-3.962a.071.071,0,0,0-.123.051v7.928a1.16,1.16,0,0,0,1.157,1.157H61.882a1.16,1.16,0,0,0,1.157-1.157v-7.928A.072.072,0,0,0,62.916,146.707Z" transform="translate(-48 -146.685)"/>
</svg>
